<svg width="36" height="35" viewBox="0 0 36 35" fill="none" xmlns="http://www.w3.org/2000/svg">
<path d="M4.64931 15.8644L6.96164 13.552L6.96405 13.5496H11.3143L9.58336 15.2806L9.13646 15.7275L7.36391 17.5L7.58344 17.7201L17.5137 27.6498L27.6634 17.5L25.8903 15.7275L25.7654 15.602L23.7131 13.5496H28.0633L28.0657 13.552L29.8781 15.3644L32.0137 17.5L17.5137 32L3.01367 17.5L4.64931 15.8644ZM17.5137 3L25.8921 11.3784H21.5419L17.5137 7.35024L13.4855 11.3784H9.13525L17.5137 3Z" fill="#096DD9"/>
<path d="M7.36453 17.4999L9.13708 15.7274L9.58398 15.2805L7.85366 13.5496H6.96467L6.96226 13.552L4.64993 15.8643L6.86938 18.0729L7.36453 17.4999Z" fill="url(#paint0_linear_112117_33940)"/>
<path d="M25.8911 15.7274L27.6643 17.4999L27.4888 17.6754L27.4894 17.676L29.8789 15.3643L28.0666 13.552L28.0641 13.5496H27.888L25.7663 15.6019L25.8911 15.7274Z" fill="url(#paint1_linear_112117_33940)"/>
<path d="M6.95946 13.5496L6.96187 13.552L9.13669 15.7274L17.5139 24.104L28.0684 13.5496H6.95946Z" fill="#1890FF"/>
<defs>
<linearGradient id="paint0_linear_112117_33940" x1="8.63954" y1="14.0887" x2="5.58137" y2="17.1469" gradientUnits="userSpaceOnUse">
<stop stop-color="#023B95"/>
<stop offset="0.9637" stop-color="#096CD9" stop-opacity="0"/>
</linearGradient>
<linearGradient id="paint1_linear_112117_33940" x1="26.282" y1="14.1278" x2="28.7548" y2="16.9379" gradientUnits="userSpaceOnUse">
<stop stop-color="#023B95"/>
<stop offset="1" stop-color="#096DD9" stop-opacity="0"/>
</linearGradient>
</defs>
</svg>
